<svg width="512" height="512" viewBox="0 0 512 512" fill="none" xmlns="http://www.w3.org/2000/svg">
<rect width="512" height="512" fill="#218358"/>
<path d="M224.6 185.421H161.8L146.1 169.737L130.4 185.421H99C99 142.133 137.622 107 185.35 107C233.078 107 271.7 142.133 271.7 185.421C279.55 216.789 318.8 318.737 287.4 405H224.6C237.631 373.632 248.15 342.263 240.3 303.053M271.7 171.931C287.598 160.189 306.879 153.915 326.65 154.051C374.378 154.051 413 189.184 413 232.472H365.9L350.2 216.788L334.5 232.472H287.4M160.074 212.241C126.319 245.962 123.964 298.033 154.579 328.774L221.147 262.116L276.568 206.751C245.953 176.01 193.829 178.52 160.074 212.241Z" stroke="white" stroke-width="14" stroke-linecap="round" stroke-linejoin="round"/>
</svg>
